<svg className="logo" role="presentation" view-box="0 0 64 16" width="64" height="16" fill="none" xmlns="http://www.w3.org/2000/svg">
    <path fill="#FF5B24" fill-rule="evenodd" d="M64 3.84C63.28 1.09 61.53 0 59.14 0c-1.93 0-4.36 1.1-4.36 3.72 0 1.7 1.18 3.03 3.09 3.37l1.81.32c1.23.23 1.58.7 1.58 1.32 0 .7-.76 1.1-1.89 1.1-1.48 0-2.4-.52-2.55-2l-2.61.41c.4 2.85 2.96 4.02 5.26 4.02 2.18 0 4.5-1.25 4.5-3.78 0-1.71-1.04-2.96-3-3.33l-1.99-.36c-1.11-.2-1.48-.75-1.48-1.27 0-.67.72-1.1 1.7-1.1 1.26 0 2.15.43 2.19 1.82l2.61-.4zM5.92 8.16L8.64.3h3.19L7.1 11.96H4.73L0 .3h3.19l2.73 7.86zm16.69-4.52c0 .93-.74 1.57-1.6 1.57-.87 0-1.61-.64-1.61-1.57s.74-1.58 1.6-1.58c.87 0 1.6.65 1.6 1.58zm.5 4.12c-1.08 1.37-2.2 2.32-4.2 2.32-2.04 0-3.63-1.21-4.86-2.99-.5-.73-1.25-.89-1.81-.5-.51.36-.64 1.13-.16 1.8 1.7 2.56 4.07 4.05 6.83 4.05 2.53 0 4.5-1.2 6.04-3.23.58-.75.56-1.51 0-1.94-.51-.4-1.27-.26-1.85.49zM30.2 6.1c0 2.38 1.4 3.64 2.96 3.64 1.48 0 3-1.17 3-3.64 0-2.42-1.52-3.6-2.98-3.6-1.58 0-2.98 1.12-2.98 3.6zm0-4.18V.32h-2.9V16h2.9v-5.58a4.33 4.33 0 0 0 3.64 1.84c2.66 0 5.25-2.06 5.25-6.3 0-4.06-2.7-5.96-5-5.96-1.83 0-3.09.83-3.89 1.92zM44.13 6.1c0 2.38 1.4 3.64 2.96 3.64 1.48 0 3-1.17 3-3.64 0-2.42-1.52-3.6-2.98-3.6-1.58 0-2.98 1.12-2.98 3.6zm0-4.18V.32h-2.9V16h2.9v-5.58a4.33 4.33 0 0 0 3.64 1.84c2.65 0 5.24-2.06 5.24-6.3 0-4.06-2.7-5.96-5-5.96-1.83 0-3.08.83-3.88 1.92z" clip-rule="evenodd"></path>
</svg>